<?xml version="1.0" encoding="UTF-8" standalone="no"?>
<!-- Created with Inkscape (http://www.inkscape.org/) -->
<svg xmlns:dc="http://purl.org/dc/elements/1.1/" xmlns:cc="http://creativecommons.org/ns#" xmlns:rdf="http://www.w3.org/1999/02/22-rdf-syntax-ns#" xmlns:svg="http://www.w3.org/2000/svg" xmlns="http://www.w3.org/2000/svg" xmlns:xlink="http://www.w3.org/1999/xlink" xmlns:sodipodi="http://sodipodi.sourceforge.net/DTD/sodipodi-0.dtd" xmlns:inkscape="http://www.inkscape.org/namespaces/inkscape" width="10.000000cm" height="10.000000cm" id="svg2455" sodipodi:version="0.32" inkscape:version="0.47pre4 r22446" sodipodi:docname="Openstreetmap_glas.svg" inkscape:export-filename="/home/matt/projects/opencheesemap/icon/mag_map.png" inkscape:export-xdpi="130.04802" inkscape:export-ydpi="130.04802" version="1.1">
  <defs id="defs3">
    <inkscape:perspective sodipodi:type="inkscape:persp3d" inkscape:vp_x="0 : 177.16536 : 1" inkscape:vp_y="0 : 1000 : 0" inkscape:vp_z="354.33072 : 177.16536 : 1" inkscape:persp3d-origin="177.16536 : 118.11024 : 1" id="perspective13010"/>
    <linearGradient id="linearGradient2419">
      <stop style="stop-color:#000000;stop-opacity:0.50515461;" offset="0.0000000" id="stop2420"/>
      <stop style="stop-color:#000000;stop-opacity:0.0000000;" offset="1.0000000" id="stop2421"/>
    </linearGradient>
    <linearGradient inkscape:collect="always" xlink:href="#linearGradient2419" id="linearGradient2422" gradientTransform="scale(1.195930,0.836169)" x1="156.33753" y1="184.92068" x2="264.56920" y2="184.92068" gradientUnits="userSpaceOnUse"/>
    <linearGradient id="linearGradient2411">
      <stop style="stop-color:#ffffff;stop-opacity:1.0000000;" offset="0.0000000" id="stop2412"/>
      <stop style="stop-color:#ffffff;stop-opacity:0.0000000;" offset="1.0000000" id="stop2413"/>
    </linearGradient>
    <radialGradient inkscape:collect="always" xlink:href="#linearGradient2411" id="radialGradient2415" cx="212.59842" cy="70.866119" fx="212.59842" fy="70.866119" r="35.433071" gradientUnits="userSpaceOnUse"/>
    <linearGradient inkscape:collect="always" xlink:href="#linearGradient1767" id="linearGradient1779" gradientUnits="userSpaceOnUse" gradientTransform="scale(0.689104,1.451160)" x1="414.13153" y1="240.14357" x2="302.99097" y2="240.80186"/>
    <linearGradient id="linearGradient1767">
      <stop style="stop-color:#3f3318;stop-opacity:1.0000000;" offset="0.0000000" id="stop1768"/>
      <stop style="stop-color:#815f0e;stop-opacity:1.0000000;" offset="1.0000000" id="stop1769"/>
    </linearGradient>
    <linearGradient inkscape:collect="always" xlink:href="#linearGradient1767" id="linearGradient1778" gradientUnits="userSpaceOnUse" gradientTransform="matrix(0.697599,2.286358e-18,4.823872e-18,1.471830,-3.876056e-17,-11.82638)" x1="299.37338" y1="252.27031" x2="411.72696" y2="252.27031"/>
    <linearGradient id="linearGradient1754">
      <stop style="stop-color:#747474;stop-opacity:1.0000000;" offset="0.0000000" id="stop1755"/>
      <stop style="stop-color:#bebebe;stop-opacity:1.0000000;" offset="0.50000000" id="stop1757"/>
      <stop style="stop-color:#d5d5d5;stop-opacity:1.0000000;" offset="0.62500000" id="stop1759"/>
      <stop style="stop-color:#818181;stop-opacity:1.0000000;" offset="0.75000000" id="stop1758"/>
      <stop style="stop-color:#c3c3c3;stop-opacity:1.0000000;" offset="1.0000000" id="stop1756"/>
    </linearGradient>
    <linearGradient inkscape:collect="always" xlink:href="#linearGradient1754" id="linearGradient1777" gradientUnits="userSpaceOnUse" gradientTransform="scale(1.000071,0.999929)" x1="150.49463" y1="42.808048" x2="345.53265" y2="242.17987"/>
    <pattern patternUnits="userSpaceOnUse" width="28.945312" height="33.076172" patternTransform="translate(190.4901,70.84341)" id="pattern2568">
      <text xml:space="preserve" style="font-size:12.000000;font-style:normal;font-weight:normal;fill:#000000;fill-opacity:1.0000000;stroke:none;stroke-width:1.0000000pt;stroke-linecap:butt;stroke-linejoin:miter;stroke-opacity:1.0000000;font-family:Bitstream Vera Sans" x="189.69904" y="67.749657" id="text2569" transform="translate(-190.4901,-70.84341)"><tspan sodipodi:role="line" id="tspan2570" x="189.69904" y="67.749657"/><tspan sodipodi:role="line" id="tspan2576" x="189.69904" y="79.749657">0010</tspan><tspan sodipodi:role="line" id="tspan2578" x="189.69904" y="91.749657">0100</tspan><tspan sodipodi:role="line" id="tspan2580" x="189.69904" y="103.74966">0111</tspan><tspan sodipodi:role="line" id="tspan2582" x="189.69904" y="115.74966"/></text>
    </pattern>
    <pattern patternUnits="userSpaceOnUse" width="32.232422" height="37.876175" patternTransform="translate(183.7668,59.46841)" id="pattern2606">
      <text xml:space="preserve" style="font-size:12.000000;font-style:normal;font-weight:bold;fill:#000000;fill-opacity:1.0000000;stroke:none;stroke-width:1.0000000pt;stroke-linecap:butt;stroke-linejoin:miter;stroke-opacity:1.0000000;font-family:Bitstream Vera Sans;font-stretch:normal;font-variant:normal;text-anchor:middle;writing-mode:lr;" x="189.69904" y="67.749657" id="text2607" transform="translate(-173.5858,-58.84341)" sodipodi:linespacing="120%"><tspan x="189.69904" y="67.749657" sodipodi:role="line" id="tspan2608">0010</tspan><tspan x="189.69904" y="82.149657" sodipodi:role="line" id="tspan2610">0100</tspan><tspan x="189.69904" y="96.549658" sodipodi:role="line" id="tspan2612">0111</tspan></text>
    </pattern>
    <pattern patternUnits="userSpaceOnUse" width="32.232422" height="28.276169" patternTransform="translate(183.7668,59.46841)" id="pattern2623">
      <text xml:space="preserve" style="font-size:12.000000;font-style:normal;font-variant:normal;font-weight:bold;font-stretch:normal;fill:#000000;fill-opacity:1.0000000;stroke:none;stroke-width:1.0000000pt;stroke-linecap:butt;stroke-linejoin:miter;stroke-opacity:1.0000000;font-family:Bitstream Vera Sans;text-anchor:middle;writing-mode:lr;" x="189.69904" y="67.749657" id="text2624" transform="translate(-173.5858,-58.84341)" sodipodi:linespacing="80%"><tspan x="189.69904" y="67.749657" sodipodi:role="line" id="tspan2625">0010</tspan><tspan x="189.69904" y="77.349657" sodipodi:role="line" id="tspan2627">0100</tspan><tspan x="189.69904" y="86.949657" sodipodi:role="line" id="tspan2629">0111</tspan></text>
    </pattern>
    <pattern patternUnits="userSpaceOnUse" width="32.232422" height="25.876175" patternTransform="translate(183.7668,59.46841)" id="pattern2639">
      <text xml:space="preserve" style="font-size:12.000000;font-style:normal;font-variant:normal;font-weight:bold;font-stretch:normal;fill:#000000;fill-opacity:1.0000000;stroke:none;stroke-width:1.0000000pt;stroke-linecap:butt;stroke-linejoin:miter;stroke-opacity:1.0000000;font-family:Bitstream Vera Sans;text-anchor:middle;writing-mode:lr;" x="189.69904" y="67.749657" id="text2640" transform="translate(-173.5858,-58.84341)" sodipodi:linespacing="70%"><tspan x="189.69904" y="67.749657" sodipodi:role="line" id="tspan2641">0010</tspan><tspan x="189.69904" y="76.149656" sodipodi:role="line" id="tspan2643">0100</tspan><tspan x="189.69904" y="84.549656" sodipodi:role="line" id="tspan2645">0111</tspan></text>
    </pattern>
    <pattern patternUnits="userSpaceOnUse" width="96.697266" height="77.628510" patternTransform="translate(151.5402,41.65591)" id="pattern2692">
      <text xml:space="preserve" style="font-size:36.000000;font-style:normal;font-variant:normal;font-weight:bold;font-stretch:normal;fill:#000000;fill-opacity:1.0000000;stroke:none;stroke-width:1.0000000pt;stroke-linecap:butt;stroke-linejoin:miter;stroke-opacity:1.0000000;font-family:Bitstream Vera Sans;text-anchor:middle;writing-mode:lr;" x="189.69904" y="67.749657" id="text2693" transform="translate(-141.3592,-41.03091)" sodipodi:linespacing="70%"><tspan x="189.69904" y="67.749657" sodipodi:role="line" id="tspan2694">0010</tspan><tspan x="189.69904" y="92.949656" sodipodi:role="line" id="tspan2696">0100</tspan><tspan x="189.69904" y="118.14965" sodipodi:role="line" id="tspan2698">0111</tspan></text>
    </pattern>
    <inkscape:perspective id="perspective13160" inkscape:persp3d-origin="0.5 : 0.33333333 : 1" inkscape:vp_z="1 : 0.5 : 1" inkscape:vp_y="0 : 1000 : 0" inkscape:vp_x="0 : 0.5 : 1" sodipodi:type="inkscape:persp3d"/>
  </defs>
  <sodipodi:namedview id="base" pagecolor="#ffffff" bordercolor="#666666" borderopacity="1.0" inkscape:pageopacity="0.0" inkscape:pageshadow="2" inkscape:zoom="0.65231587" inkscape:cx="397.49864" inkscape:cy="35.582918" inkscape:current-layer="layer1" showgrid="true" inkscape:grid-bbox="true" inkscape:grid-points="true" inkscape:window-width="1280" inkscape:window-height="800" inkscape:window-x="-3" inkscape:window-y="-23" showguides="true" inkscape:guide-bbox="true" inkscape:window-maximized="1"/>
  <metadata id="metadata4">
    <rdf:RDF>
      <cc:Work rdf:about="">
        <dc:format>image/svg+xml</dc:format>
        <dc:type rdf:resource="http://purl.org/dc/dcmitype/StillImage"/>
        <dc:title/>
      </cc:Work>
    </rdf:RDF>
  </metadata>
  <g inkscape:groupmode="layer" id="layer4" inkscape:label="Map" style="display:block"/>
  <g inkscape:groupmode="layer" id="layer5" inkscape:label="Data" style="display:block">
    <path sodipodi:type="arc" style="opacity:0.32926827;fill:none;stroke:none" id="path2538" sodipodi:cx="224.91193" sodipodi:cy="118.61269" sodipodi:rx="100.89618" sodipodi:ry="100.89618" d="m 325.80811,118.61269 a 100.89618,100.89618 0 1 1 -201.79236,0 100.89618,100.89618 0 1 1 201.79236,0 z" transform="translate(10.18107,0.625001)"/>
    <path sodipodi:type="arc" style="opacity:0.35975611;fill:url(#pattern2692);fill-opacity:1;stroke:none" id="path2615" sodipodi:cx="224.91193" sodipodi:cy="118.61269" sodipodi:rx="100.89618" sodipodi:ry="100.89618" d="m 325.80811,118.61269 a 100.89618,100.89618 0 1 1 -201.79236,0 100.89618,100.89618 0 1 1 201.79236,0 z" transform="translate(10.80607,6.608137e-7)"/>
    <rect style="fill:none;stroke:none" width="32.232422" height="37.876175" x="183.76682" y="59.468407" id="rect2614"/>
    <rect style="fill:none;stroke:none" width="32.232422" height="28.276169" x="183.76675" y="59.468407" id="rect2631"/>
    <rect style="opacity:0.35975611;fill:none;stroke:none" id="rect2684" width="74.52462" height="53.149605" x="379.39807" y="159.44879"/>
  </g>
  <g inkscape:label="MagnifyingGlass" inkscape:groupmode="layer" id="layer1" style="display:block">
    <g id="g13216" inkscape:export-filename="/home/andreas/SoftwareFreedomKosova2010.png" inkscape:export-xdpi="150" inkscape:export-ydpi="150">
      <g id="g12683" style="display:block" transform="translate(17.236685,-1.0023058)">
        <path sodipodi:nodetypes="ccccccccccccccccc" id="path2670" d="M 17.61491,18.292406 88.582677,35.433051 159.44882,17.716515 230.31496,35.433051 301.1811,17.716515 318.89764,88.582657 301.1811,159.4488 318.89764,230.31494 301.1811,301.18108 230.31496,318.89762 159.44882,301.18108 88.582677,318.89762 17.716535,301.18108 35.433071,230.31494 17.716535,159.4488 35.433071,88.582657 17.61491,18.292406 z" style="fill:#244aa5;fill-opacity:1;stroke:#000000;stroke-width:6.25;stroke-linecap:butt;stroke-linejoin:miter;stroke-miterlimit:4;stroke-opacity:1"/>
        <path id="path2523" d="M 35.907316,88.752046 106.29921,106.29919 177.16535,88.582657 248.0315,106.29919 318.89764,88.582657" style="opacity:0.32926827;fill:none;stroke:#000000;stroke-width:1.25;stroke-linecap:butt;stroke-linejoin:miter;stroke-miterlimit:4;stroke-opacity:1;stroke-dasharray:10, 1.25;stroke-dashoffset:0"/>
        <path id="path2524" d="m 87.397053,36.584813 18.902157,69.714377 -17.716533,70.86614 17.716533,70.86615 -17.716533,70.86614" style="opacity:0.32926827;fill:none;stroke:#000000;stroke-width:1.25;stroke-linecap:butt;stroke-linejoin:miter;stroke-miterlimit:4;stroke-opacity:1;stroke-dasharray:10, 1.25;stroke-dashoffset:0"/>
        <path id="path2525" d="m 158.10695,18.868282 18.90215,69.714377 -17.71653,70.866141 17.71653,70.86615 -17.71653,70.86614" style="opacity:0.32926827;fill:none;stroke:#000000;stroke-width:1.25;stroke-linecap:butt;stroke-linejoin:miter;stroke-miterlimit:4;stroke-opacity:1;stroke-dasharray:10, 1.25;stroke-dashoffset:0"/>
        <path id="path2526" d="m 229.12935,36.584816 18.90215,69.714374 -17.71653,70.86614 17.71653,70.86615 -17.71653,70.86614" style="opacity:0.32926827;fill:none;stroke:#000000;stroke-width:1.25;stroke-linecap:butt;stroke-linejoin:miter;stroke-miterlimit:4;stroke-opacity:1;stroke-dasharray:10, 1.25;stroke-dashoffset:0"/>
        <path id="path2527" d="m 17.716535,159.77444 70.391894,17.54714 70.866141,-17.71653 70.86615,17.71653 70.86614,-17.71653" style="opacity:0.32926827;fill:none;stroke:#000000;stroke-width:1.25;stroke-linecap:butt;stroke-linejoin:miter;stroke-miterlimit:4;stroke-opacity:1;stroke-dasharray:10, 1.25;stroke-dashoffset:0"/>
        <path id="path2528" d="m 35.433071,230.31494 70.391889,17.54714 70.86615,-17.71653 70.86615,17.71653 70.86614,-17.71653" style="opacity:0.32926827;fill:none;stroke:#000000;stroke-width:1.25;stroke-linecap:butt;stroke-linejoin:miter;stroke-miterlimit:4;stroke-opacity:1;stroke-dasharray:10, 1.25;stroke-dashoffset:0"/>
        <path d="m 238.73276,81.488627 c 1.20326,1.404292 2.00885,2.807489 2.00885,4.514243 -1.01028,0.49947 -2.40615,0.70343 -3.21174,1.606059 5.01627,-0.703793 6.01557,5.112947 11.63348,2.905624 0.20396,0.805592 1.00955,1.508656 2.00848,1.204728 l 0.60164,-1.602029 c 2.20219,-0.601631 1.60056,3.00742 4.01661,2.303993 1.20399,1.004428 0.3984,2.707156 1.20399,3.915544 0,1.401731 0.602,2.604993 1.2029,3.807891 0.60199,-0.698306 0.9993,-1.702733 2.40615,-1.401733 0.9993,1.101097 1.8049,2.105523 2.00813,3.308423 -0.40756,2.30948 -1.00919,4.31284 1.39697,5.51574 l 0,0.70343 c 1.61118,0.70343 5.2206,-0.70343 5.2206,2.10553 -0.20469,1.00442 0.99893,0.10216 1.40686,0.70342 0.9993,-0.40279 2.40615,-0.19847 3.60905,-0.19847 0.9993,2.10553 -1.2029,3.60906 -1.80453,5.51575 0.99894,0.9993 0.60163,2.80895 0.39767,4.00635 l -0.60199,0.301 c 1.60056,0.30064 3.60905,-0.19334 5.01664,0.70892 l 2.61012,0.99894 c 1.20289,-0.69794 2.59986,-0.80523 4.21068,-0.69794 1.20326,0.90263 -0.40792,2.40616 0.602,3.10446 1.40722,0 2.61012,0.20433 2.80346,1.40759 l 0.20396,0.3973 c 0.9993,-1.80489 3.81338,-0.60199 5.01664,-1.90119 2.00849,0 2.40579,2.20219 3.40473,3.40545 0.40829,3.11472 -3.40473,4.52231 -2.20183,7.6264 -0.80559,1.50353 -2.40616,2.70716 -3.60906,4.11401 0.39731,0.20397 0.19298,0.69831 0.19298,0.99894 -1.20289,0.70929 -0.19298,2.81444 -1.80453,3.00852 -0.19334,1.30982 -2.59949,0.80522 -1.80452,2.21208 1.61082,2.10553 -0.79497,3.40546 -0.79497,5.31728 -1.00992,1.10622 -3.01841,-1.00992 -3.01841,1.10622 -1.20326,0.30063 -2.40616,-1.10622 -3.20113,0.097 -0.40793,1.40722 0.79497,1.9012 0.60163,3.30842 1.99823,-0.20433 2.59987,1.80453 3.40546,3.00779 l 2.00849,2.00849 c -2.00849,1.60056 -4.61898,-0.20433 -7.0255,0.69793 -0.60163,-0.30063 0,-1.0956 -0.60163,-1.39624 -0.60164,-0.70928 -1.80453,-0.70928 -2.80346,-0.90299 0.19334,0.90299 -1.61119,1.20326 -0.8056,2.29886 0,0.30064 0.39731,1.20327 -0.39767,1.20327 -1.61118,0.50495 -1.40685,-1.39624 -2.81444,-0.6983 -1.80453,0.6983 -0.39731,3.40545 -3.00742,3.10445 0.3973,2.41715 -4.00673,4.01771 -0.99931,6.12324 0.39731,0.39767 0.19335,1.20289 0.19335,1.80452 -1.8049,1.61119 -5.00639,1.00992 -7.01451,0.40793 -1.61119,-0.40793 -0.60164,-2.41678 -1.2029,-3.51238 -0.60163,-1.00956 -2.40616,-1.70786 -2.40616,-3.11508 -1.20399,-0.49471 -2.21281,-0.80486 -3.01841,-1.8049 -2.80345,2.70716 -6.21844,5.31728 -10.22626,5.41395 -1.80452,0.90226 -2.81408,4.52267 -5.6179,3.01804 -1.1011,1.80526 -4.41501,0 -4.61385,2.60023 -1.30506,0.5046 -0.70343,2.21245 -1.50353,3.00742 -0.301,2.00849 0,3.71635 1.70237,4.91998 0.70342,1.50353 -1.5039,1.50353 -0.60164,2.91111 0.20433,0.49435 0,1.2029 -0.30063,1.40686 -0.60163,0.30063 -0.8001,0.602 -0.60163,1.20326 -0.49947,0 -0.70306,0.30063 -1.1011,0.69794 -0.50496,0.9993 -2.10552,1.50389 -3.21175,2.20219 -1.1011,0.30064 -1.90669,-0.49434 -2.60499,-1.20289 -0.20433,1.10622 -1.10622,1.70785 -2.20732,1.70785 -1.60606,0 -1.30506,-1.40722 -2.50832,-2.00848 0.49946,-1.8049 -1.10623,-2.59987 -0.60163,-4.21106 1.30469,-0.99893 3.50725,-1.70785 2.90562,-3.81301 -1.40173,-1.6976 -0.90226,-4.21105 -2.30399,-6.21954 -0.90227,-0.79497 -2.40616,-1.99786 -1.90669,-3.91005 1.30506,-1.50353 0,-3.30842 -0.70343,-4.90899 -0.30064,-1.31018 -1.1011,-2.51307 -1.1011,-4.01734 -2.20732,-1.29956 -2.30949,-4.71564 -5.41907,-5.01627 -2.20732,0 -2.605,-2.80383 -4.81232,-2.61049 -0.20396,-0.3973 -0.70342,-0.69794 -1.10622,-1.0956 -1.60057,1.0956 -3.60906,-0.30064 -5.61278,0.19334 -1.30506,-2.2022 1.1011,-5.20999 -2.41129,-6.52054 l 0,-1.39624 c 0.4028,0.19298 0.60163,-0.20469 0.70343,-0.40828 0.19884,-1.5039 -2.50832,-1.69724 -1.40173,-3.40546 -0.60163,-0.5046 -1.30506,-0.70892 -0.90226,-1.70786 -1.50902,-3.10446 -6.02071,-2.80346 -7.02513,-5.91854 0.80559,-0.69793 0.80559,-1.40722 1.10659,-2.00848 -0.7038,-1.20327 -0.90227,-2.5032 -0.7038,-3.80277 0.7038,-0.20433 1.1011,-1.10622 1.5039,-1.81551 -0.90227,-0.60126 -2.00373,-1.50353 -3.00779,-1.20289 -1.80453,-0.30064 -3.10995,-1.69724 -4.71564,-2.50283 -0.4028,-0.39767 -0.19847,-1.10623 -0.19847,-1.60057 2.20695,-0.70928 -0.30064,-3.81887 2.40615,-3.41571 0.7038,-0.90226 2.20733,-1.20326 3.30879,-1.90669 1.10623,-0.19847 2.00849,0.20396 3.10959,0.50496 0.90226,1.19777 2.50832,0.6983 3.41022,1.70236 0.90226,-0.20396 2.00885,-0.70379 3.10995,-0.20396 0,-1.70273 0.80046,-2.70715 2.00849,-3.91042 0.19883,-0.6983 1.29993,-1.20289 2.20219,-1.60056 1.70822,0.39767 3.71159,0.39767 4.91997,-0.80559 0.80047,0.50459 1.5039,-0.49947 2.40616,-0.49947 1.10073,-0.20396 2.00336,0.0967 2.80895,0.60163 0.0967,-2.00885 3.60906,-0.301 4.31285,-2.70716 0.80047,-1.60606 -2.20732,-2.20732 -2.00885,-3.61454 -0.49947,-1.60606 0.70379,-2.40616 1.30506,-3.50726 0.70342,-0.301 1.50389,-0.70343 2.40616,-0.50496 2.30948,-0.80046 0.50459,-5.51574 4.21617,-3.807886 0,0.499835 -0.20396,1.101096 0.0967,1.203266 1.30506,0 1.50536,-1.505362 2.41165,-2.008492 0.39731,-1.401731 -0.50459,-3.109585 0.69831,-4.211048 0.60163,-0.101799 1.10622,-0.300635 1.50389,-0.805592 0,-1.101101 -0.60163,-1.702366 -1.50389,-2.406159 -0.30064,0.501298 -1.1011,0.102162 -1.6046,0.300997 0,-1.203262 -0.69976,-2.003359 -0.90372,-3.109951 -0.60164,-0.300634 -0.90227,-0.8001 -0.69831,-1.503893 0.90227,-0.902265 0,-3.109588 2.10553,-2.60902 0.80046,-0.6994 2.20732,-0.199934 3.00778,-1.403197 2.10553,-1.202896 4.91412,-1.202896 6.52017,-3.410219 0.70343,0.101799 1.5039,-0.601631 2.20733,0 0.1992,1.304695 2.10589,0.799734 2.10589,2.005561" id="path12506" style="fill:#d0a650"/>
        <path id="star" d="m 176.66385,80.785382 -7.43964,-5.23229 -7.43776,5.234772 2.86348,-8.437134 -7.4633,-5.200898 9.20938,0.01787 2.82519,-8.449107 2.82822,8.448169 9.20937,-0.02092 -7.46144,5.203379 2.8665,8.436142 z" style="fill:#ffffff"/>
        <use xlink:href="#star" transform="translate(25.076697,-8.0242827)" id="use12509" x="0" y="0" width="744.09448" height="1052.3622"/>
        <use xlink:href="#star" transform="translate(81.148756,-13.543053)" id="use12511" x="0" y="0" width="744.09448" height="1052.3622"/>
        <use xlink:href="#star" transform="translate(108.2287,-8.0242827)" id="use12513" x="0" y="0" width="744.09448" height="1052.3622"/>
        <use xlink:href="#star" transform="translate(51.754347,-13.543053)" id="use12515" x="0" y="0" width="744.09448" height="1052.3622"/>
        <use xlink:href="#star" transform="translate(135.91054,0)" id="use12517" x="0" y="0" width="744.09448" height="1052.3622"/>
      </g>
      <g style="display:block" id="g2489">
        <g transform="matrix(0.707107,0.707107,-0.707107,0.707107,161.6029,-155.8874)" id="g1774">
          <path id="path1736" d="m 248.03125,35.4375 c -58.67716,0 -106.3125,47.604086 -106.3125,106.28125 0,52.62685 38.35814,96.25709 88.59375,104.71875 l 0,37.03125 35.4375,0 0,-37.03125 c 50.23562,-8.46166 88.59377,-52.0919 88.59375,-104.71875 0,-58.677164 -47.63534,-106.28125 -106.3125,-106.28125 z m 0,17.71875 c 48.89764,0 88.59375,39.664861 88.59375,88.5625 10e-6,48.89764 -39.69611,88.59375 -88.59375,88.59375 -48.89764,1e-5 -88.59375,-39.69611 -88.59375,-88.59375 -1e-5,-48.897639 39.69611,-88.5625 88.59375,-88.5625 z" style="fill:url(#linearGradient1777);fill-opacity:1;stroke:#000000;stroke-width:6.25;stroke-linecap:butt;stroke-linejoin:miter;stroke-miterlimit:4;stroke-opacity:1"/>
          <rect ry="20" rx="20" y="280.64615" x="212.59842" height="157.6528" width="70.866142" id="rect1762" style="fill:url(#linearGradient1778);fill-opacity:1;stroke:url(#linearGradient1779);stroke-width:7.61230564;stroke-linecap:butt;stroke-linejoin:round;stroke-miterlimit:4;stroke-opacity:1"/>
        </g>
        <path transform="matrix(0.933079,0,0,0.933079,15.92121,6.436221)" d="m 248.03149,70.866119 a 35.433071,35.433071 0 1 1 -70.86614,0 35.433071,35.433071 0 1 1 70.86614,0 z" sodipodi:ry="35.433071" sodipodi:rx="35.433071" sodipodi:cy="70.866119" sodipodi:cx="212.59842" id="path2410" style="fill:url(#radialGradient2415);fill-opacity:1;stroke:none" sodipodi:type="arc"/>
        <path id="path2416" d="m 315.0625,109.375 c -15.36547,42.0745 -55.62842,72.1875 -103,72.1875 -8.64475,0 -17.02349,-1.10746 -25.09375,-3 13.75135,13.16391 32.34998,21.3125 52.875,21.3125 42.25952,0 76.56251,-34.30298 76.5625,-76.5625 0,-4.76122 -0.51069,-9.41608 -1.34375,-13.9375 z" style="fill:url(#linearGradient2422);fill-opacity:1;stroke:none"/>
      </g>
    </g>
  </g>
</svg>