<?xml version="1.0" encoding="UTF-8" standalone="no"?>
<!-- Created with Inkscape (http://www.inkscape.org/) -->

<svg
   xmlns:dc="http://purl.org/dc/elements/1.1/"
   xmlns:cc="http://creativecommons.org/ns#"
   xmlns:rdf="http://www.w3.org/1999/02/22-rdf-syntax-ns#"
   xmlns:svg="http://www.w3.org/2000/svg"
   xmlns="http://www.w3.org/2000/svg"
   xmlns:sodipodi="http://sodipodi.sourceforge.net/DTD/sodipodi-0.dtd"
   xmlns:inkscape="http://www.inkscape.org/namespaces/inkscape"
   width="218.0307"
   height="125.03316"
   viewBox="0 0 57.687292 33.081688"
   version="1.1"
   id="svg8"
   inkscape:version="0.92.2 (5c3e80d, 2017-08-06)"
   sodipodi:docname="vertical-color.svg">
  <defs
     id="defs2" />
  <sodipodi:namedview
     id="base"
     pagecolor="#ffffff"
     bordercolor="#666666"
     borderopacity="1.0"
     inkscape:pageopacity="0.0"
     inkscape:pageshadow="2"
     inkscape:zoom="2.0225"
     inkscape:cx="109.02663"
     inkscape:cy="23.661343"
     inkscape:document-units="mm"
     inkscape:current-layer="layer1"
     inkscape:document-rotation="0"
     showgrid="false"
     borderlayer="true"
     inkscape:showpageshadow="false"
     units="px"
     inkscape:pagecheckerboard="false"
     showguides="true"
     inkscape:window-width="1366"
     inkscape:window-height="713"
     inkscape:window-x="0"
     inkscape:window-y="0"
     inkscape:window-maximized="1"
     fit-margin-top="0"
     fit-margin-left="0"
     fit-margin-right="0"
     fit-margin-bottom="0">
    <inkscape:grid
       type="xygrid"
       id="grid10"
       originx="-171.57257"
       originy="-94.887906" />
  </sodipodi:namedview>
  <metadata
     id="metadata5">
    <rdf:RDF>
      <cc:Work
         rdf:about="">
        <dc:format>image/svg+xml</dc:format>
        <dc:type
           rdf:resource="http://purl.org/dc/dcmitype/StillImage" />
        <dc:title></dc:title>
      </cc:Work>
    </rdf:RDF>
  </metadata>
  <g
     inkscape:label="Layer 1"
     inkscape:groupmode="layer"
     id="layer1"
     transform="translate(-171.57256,-169.03041)">
    <g
       id="g4082"
       transform="translate(0.18483978,0.65409977)">
      <path
         d="m 179.65579,195.7349 c 0,-0.20636 -0.0421,-0.41338 -0.12687,-0.62007 -0.0848,-0.20671 -0.2021,-0.38789 -0.35255,-0.54257 -0.15037,-0.15526 -0.329,-0.28224 -0.53568,-0.38101 -0.20637,-0.0987 -0.43205,-0.14785 -0.67632,-0.14785 -0.24431,0 -0.46999,0.049 -0.67668,0.14785 -0.20667,0.0989 -0.38556,0.22567 -0.53568,0.38101 -0.15038,0.15472 -0.26784,0.33586 -0.35223,0.54257 -0.0848,0.20669 -0.12688,0.41371 -0.12688,0.62007 v 0.57952 c 0,0.21616 0.0421,0.42547 0.12688,0.62724 0.0845,0.20212 0.20181,0.38037 0.35223,0.53571 0.15019,0.15472 0.32901,0.2819 0.53568,0.38035 0.20669,0.0987 0.43237,0.1482 0.67668,0.1482 0.24427,0 0.46995,-0.0494 0.67632,-0.1482 0.20668,-0.0985 0.38524,-0.22568 0.53568,-0.38035 0.15037,-0.15525 0.26785,-0.33359 0.35255,-0.53571 0.0848,-0.20177 0.12687,-0.41108 0.12687,-0.62724 z m -1.69145,-3.24197 c 0.46015,0 0.8951,0.0892 1.30357,0.26783 0.40882,0.17857 0.76823,0.42287 1.07859,0.73324 0.31004,0.31004 0.55434,0.66945 0.73291,1.07826 0.17821,0.40847 0.26784,0.84344 0.26784,1.30357 v 0.29763 c 0,-0.42025 -0.0897,0.8951 -0.26784,1.30391 -0.17857,0.4088 -0.42287,0.7682 -0.73291,1.07825 -0.31036,0.31004 -0.66977,0.55433 -1.07859,0.73291 -0.40847,0.17856 -0.84342,0.26784 -1.30357,0.26784 -0.46049,0 -0.89512,-0.0894 -1.30391,-0.26784 -0.40882,-0.17858 -0.76823,-0.42287 -1.07826,-0.73291 -0.31004,-0.31005 -0.55466,-0.66945 -0.7329,-1.07825 -0.17857,-0.40881 -0.26785,-0.84346 -0.26785,-1.30391 v -0.29763 c 0,-0.46013 0.0892,-0.8951 0.26785,-1.30357 0.17821,-0.40881 0.42286,-0.76822 0.7329,-1.07826 0.31003,-0.31037 0.66944,-0.55467 1.07826,-0.73324 0.40879,-0.17856 0.84342,-0.26783 1.30391,-0.26783"
         style="fill:#59595c;fill-opacity:1;fill-rule:nonzero;stroke:none;stroke-width:0.3270413"
         id="path8491-4"
         inkscape:connector-curvature="0" />
      <path
         d="m 190.43064,194.34118 c -0.21619,0 -0.38757,0.0631 -0.51446,0.19 -0.12687,0.12689 -0.19034,0.29858 -0.19034,0.51476 v 0.42288 h 2.25529 v -0.42288 c 0,-0.21618 -0.0634,-0.38786 -0.19034,-0.51476 -0.12687,-0.12687 -0.29827,-0.19 -0.51443,-0.19 z m -0.14098,5.21498 c -0.31953,0 -0.6155,-0.0585 -0.88792,-0.17622 -0.27275,-0.11748 -0.50985,-0.27667 -0.71198,-0.47911 -0.20211,-0.20178 -0.3617,-0.43889 -0.47911,-0.71196 -0.11765,-0.2721 -0.17622,-0.56808 -0.17622,-0.88792 v -2.25496 c 0,-0.31952 0.0585,-0.61581 0.17622,-0.88823 0.11748,-0.27242 0.277,-0.50985 0.47911,-0.71165 0.20213,-0.20178 0.43923,-0.36171 0.71198,-0.47945 0.27242,-0.11748 0.56839,-0.17586 0.88792,-0.17586 h 1.12765 c 0.3195,0 0.61548,0.0585 0.8879,0.17586 0.27243,0.11767 0.50987,0.27767 0.71196,0.47945 0.20212,0.2018 0.36171,0.43923 0.47913,0.71165 0.11746,0.27242 0.17622,0.56871 0.17622,0.88823 v 1.83209 h -3.94674 v 0.42287 c 0,0.2165 0.0634,0.38786 0.19033,0.51477 0.12687,0.12651 0.29827,0.19001 0.51445,0.19001 h 1.12762 c 0.17857,0 0.3313,-0.0232 0.45819,-0.0702 0.12689,-0.0471 0.23255,-0.10106 0.31691,-0.16231 0.0848,-0.061 0.15507,-0.122 0.21159,-0.18314 0.0562,-0.061 0.10333,-0.11061 0.14098,-0.14784 h 0.28192 l 0.70476,0.70476 v 0.28159 l -0.56381,0.56413 c -0.14098,0.14062 -0.36433,0.26984 -0.66945,0.38724 -0.30548,0.11767 -0.59915,0.17622 -0.88107,0.17622 z"
         style="fill:#59595c;fill-opacity:1;fill-rule:nonzero;stroke:none;stroke-width:0.3270413"
         id="path8495-0"
         inkscape:connector-curvature="0" />
      <path
         d="m 197.93258,192.79068 c 0.31954,0 0.6155,0.0585 0.88794,0.17585 0.27242,0.11767 0.50986,0.27766 0.71196,0.47946 0.20211,0.20176 0.36171,0.4392 0.47912,0.71162 0.11748,0.27243 0.17622,0.56873 0.17622,0.88825 v 4.36959 l -0.14099,0.14062 h -1.40947 l -0.14098,-0.14062 v -4.36959 c 0,-0.21617 -0.0658,-0.38787 -0.1972,-0.51477 -0.13176,-0.12687 -0.30577,-0.19 -0.52163,-0.19 h -0.54975 c -0.28191,0 -0.54028,0.0987 -0.7751,0.29597 -0.23513,0.1972 -0.35253,0.47452 -0.35253,0.83166 v 3.94673 l -0.14098,0.14062 h -1.40956 l -0.14098,-0.14062 v -6.48425 l 0.14098,-0.14061 h 0.28191 l 0.57789,0.60602 c 0.22566,-0.18805 0.47224,-0.3362 0.74009,-0.44414 0.26786,-0.10787 0.58017,-0.16193 0.93731,-0.16193 z"
         style="fill:#59595c;fill-opacity:1;fill-rule:nonzero;stroke:none;stroke-width:0.3270413"
         id="path8499-0"
         inkscape:connector-curvature="0" />
      <path
         d="m 210.33097,196.87814 c -0.0658,0 -0.13863,0.009 -0.21846,0.0284 -0.08,0.0187 -0.15508,0.049 -0.22535,0.0913 -0.0707,0.0425 -0.12958,0.10139 -0.17622,0.17622 -0.0471,0.0751 -0.0707,0.16483 -0.0707,0.26817 0,0.10299 0.0236,0.19261 0.0707,0.26752 0.0469,0.0751 0.10572,0.13373 0.17622,0.17622 0.0703,0.0421 0.14513,0.0728 0.22535,0.0913 0.0799,0.0193 0.15271,0.0285 0.21846,0.0285 h 0.71881 c 0.2067,0 0.37579,-0.0445 0.50758,-0.13374 0.1314,-0.0893 0.23253,-0.19754 0.30317,-0.32443 0.0702,-0.12687 0.11748,-0.25116 0.14061,-0.37348 0.0236,-0.12199 0.0352,-0.22074 0.0352,-0.29597 z m 1.1417,-4.08736 c 0.31952,0 0.61548,0.0585 0.88824,0.17567 0.27242,0.11801 0.50953,0.27764 0.71165,0.47976 0.20209,0.20179 0.36171,0.43922 0.47911,0.71131 0.11748,0.27275 0.17622,0.56906 0.17622,0.88826 v 4.36991 l -0.14097,0.14061 H 213.305 l -0.56383,-0.56381 c -0.24428,0.18838 -0.49809,0.329 -0.76101,0.4232 -0.26326,0.0938 -0.5733,0.14061 -0.93044,0.14061 h -0.84573 c -0.28191,0 -0.54975,-0.0517 -0.80354,-0.15507 -0.25345,-0.10298 -0.47911,-0.24659 -0.67632,-0.43006 -0.19753,-0.18315 -0.35255,-0.4039 -0.46538,-0.66226 -0.11277,-0.25836 -0.16899,-0.54747 -0.16899,-0.86666 0,-0.31985 0.0562,-0.60176 0.16899,-0.84605 0.11277,-0.2443 0.26785,-0.451 0.46538,-0.62007 0.19721,-0.16936 0.42287,-0.29598 0.67632,-0.38102 0.25379,-0.0845 0.52163,-0.12651 0.80354,-0.12651 h 1.83242 v -0.42286 c 0,-0.21585 -0.0634,-0.38755 -0.19034,-0.51445 -0.12688,-0.12688 -0.29825,-0.19002 -0.51444,-0.19002 h -0.84572 c -0.17857,0 -0.33098,0.0233 -0.45819,0.0703 -0.12688,0.0472 -0.23254,0.10071 -0.31691,0.16193 -0.0848,0.0615 -0.15506,0.12273 -0.21158,0.1835 -0.0562,0.061 -0.10334,0.11027 -0.14098,0.14784 h -0.28192 l -0.70476,-0.70479 v -0.28157 l 0.5638,-0.56415 c 0.14099,-0.14097 0.36402,-0.2698 0.66946,-0.38787 0.30546,-0.11712 0.59915,-0.17567 0.88106,-0.17567 z"
         style="fill:#59595c;fill-opacity:1;fill-rule:nonzero;stroke:none;stroke-width:0.3270413"
         id="path8503-2"
         inkscape:connector-curvature="0" />
      <path
         d="m 223.76682,192.79068 c 0.28191,0 0.5756,0.0585 0.88106,0.17585 0.30513,0.11767 0.5285,0.24659 0.66946,0.38755 l 0.56381,0.56413 v 0.28192 l -0.84573,0.70444 h -0.28191 c -0.0376,-0.0372 -0.0824,-0.0867 -0.13376,-0.14784 -0.052,-0.0609 -0.11765,-0.122 -0.19719,-0.18315 -0.08,-0.061 -0.17405,-0.11513 -0.28224,-0.1623 -0.10822,-0.0472 -0.23252,-0.0703 -0.37348,-0.0703 h -0.98669 c -0.14096,0 -0.24657,0.0517 -0.31723,0.15471 -0.0702,0.10379 -0.10549,0.19297 -0.10549,0.26787 0,0.18805 0.0866,0.32211 0.26066,0.40193 0.17406,0.0799 0.39246,0.14785 0.65572,0.2044 0.26293,0.0563 0.54486,0.11276 0.84541,0.16898 0.30086,0.0562 0.58278,0.15996 0.84604,0.31004 0.26295,0.15039 0.48141,0.35942 0.65539,0.62726 0.17368,0.26785 0.26066,0.63675 0.26066,1.10638 0,0.56415 -0.17622,1.03411 -0.52851,1.40989 -0.35255,0.37577 -0.88105,0.56348 -1.58581,0.56348 h -1.12764 c -0.28192,0 -0.5756,-0.0585 -0.88105,-0.17622 -0.30546,-0.11748 -0.52851,-0.24658 -0.66945,-0.38721 l -0.56383,-0.56416 v -0.28157 l 0.84572,-0.70477 h 0.28193 c 0.0376,0.0373 0.0821,0.0867 0.13374,0.14785 0.0517,0.061 0.11766,0.12199 0.19753,0.18313 0.0799,0.061 0.17405,0.11514 0.28192,0.16231 0.10788,0.0472 0.23252,0.0703 0.37348,0.0703 h 1.12762 c 0.14099,0 0.24693,-0.0518 0.31724,-0.15471 0.0707,-0.10333 0.10549,-0.19295 0.10549,-0.26819 0,-0.18773 -0.087,-0.32147 -0.26066,-0.40161 -0.17404,-0.0799 -0.39242,-0.14784 -0.65539,-0.20439 -0.26326,-0.0563 -0.54515,-0.11277 -0.84572,-0.16899 -0.30121,-0.0567 -0.58279,-0.15996 -0.84606,-0.31004 -0.26293,-0.15019 -0.48141,-0.35942 -0.65538,-0.62759 -0.1737,-0.26751 -0.26067,-0.6361 -0.26067,-1.10638 0,-0.5635 0.1737,-1.03344 0.52166,-1.40955 0.34763,-0.37577 0.87384,-0.56348 1.57861,-0.56348 z"
         style="fill:#59595c;fill-opacity:1;fill-rule:nonzero;stroke:none;stroke-width:0.3270413"
         id="path8507-4"
         inkscape:connector-curvature="0" />
      <path
         d="m 205.89932,199.37976 c -0.27309,-0.11749 -0.5105,-0.27732 -0.71295,-0.47977 -0.20245,-0.20243 -0.36236,-0.43986 -0.47977,-0.71293 -0.11765,-0.27278 -0.17658,-0.5694 -0.17658,-0.88923 v -4.45202 l 0.84703,-0.42351 h 0.70577 l 0.14096,0.14134 v 4.73424 c 0,0.21651 0.0638,0.38819 0.19067,0.51509 0.12724,0.12724 0.2986,0.19065 0.51543,0.19065 h 0.56446 l 0.14133,0.14134 v 1.27024 l -0.14133,0.14134 h -0.70576 c -0.31984,0 -0.61646,-0.0589 -0.88921,-0.17658"
         style="fill:#59595c;fill-opacity:1;fill-rule:nonzero;stroke:none;stroke-width:0.3270413"
         id="path8511-5"
         inkscape:connector-curvature="0" />
      <path
         d="m 185.77939,196.31039 c 0,0.2165 -0.0634,0.38788 -0.19033,0.51475 -0.12689,0.12652 -0.29827,0.19001 -0.51447,0.19001 h -0.42285 c -0.28191,0 -0.54028,-0.0989 -0.77509,-0.29595 -0.23513,-0.19755 -0.35254,-0.47455 -0.35254,-0.83167 v -0.41862 c 0,-0.35745 0.11748,-0.63446 0.35254,-0.83167 0.23481,-0.19753 0.49318,-0.29598 0.77509,-0.29598 h 0.40879 c 0.21619,0 0.38984,0.0631 0.52166,0.19002 0.13139,0.12688 0.1972,0.2986 0.1972,0.51444 z m 1.51517,-2.15291 c -0.11748,-0.27211 -0.27732,-0.50954 -0.47911,-0.71132 -0.20211,-0.20212 -0.43954,-0.36204 -0.71196,-0.47977 -0.27243,-0.11712 -0.56872,-0.17567 -0.88794,-0.17567 h -0.70476 c -0.35712,0 -0.66978,0.054 -0.9373,0.16158 -0.26785,0.10821 -0.51444,0.25638 -0.74008,0.44445 l -0.57791,-0.60603 h -0.28189 l -0.14098,0.14063 v 6.55456 l 0.14098,0.14061 h 1.40954 l 0.14097,-0.14061 v -1.34315 c 0.0748,0.0751 0.2044,0.16483 0.38755,0.26783 0.18348,0.10345 0.38296,0.15508 0.59913,0.15508 h 0.70478 c 0.3192,0 0.6155,-0.0585 0.88792,-0.17623 0.27243,-0.11748 0.50987,-0.277 0.71197,-0.47911 0.20178,-0.2021 0.3617,-0.43889 0.47912,-0.71196 0.11747,-0.27244 0.17622,-0.5684 0.17622,-0.88791 v -1.26468 c 0,-0.3192 -0.0589,-0.61551 -0.17622,-0.88826"
         style="fill:#59595c;fill-opacity:1;fill-rule:nonzero;stroke:none;stroke-width:0.3270413"
         id="path8515-4"
         inkscape:connector-curvature="0" />
      <path
         d="m 218.55156,197.30102 c 0,0.21651 -0.0658,0.38787 -0.19721,0.51477 -0.13174,0.12652 -0.30544,0.19 -0.52161,0.19 h -0.4088 c -0.28192,0 -0.54028,-0.0989 -0.77509,-0.29597 -0.23514,-0.19753 -0.35255,-0.47452 -0.35255,-0.83168 v -0.2348 c 0,-0.35712 0.11748,-0.63446 0.35255,-0.83167 0.23481,-0.1972 0.49317,-0.29597 0.77509,-0.29597 h 0.4088 c 0.21617,0 0.38982,0.0631 0.52161,0.19001 0.1314,0.12688 0.19721,0.2986 0.19721,0.51477 z m 1.5152,-1.96879 c -0.11747,-0.27209 -0.27734,-0.50952 -0.47912,-0.71163 -0.20212,-0.2018 -0.43923,-0.36172 -0.71198,-0.47945 -0.27242,-0.11748 -0.5687,-0.17603 -0.8879,-0.17603 h -0.70478 c -0.21617,0 -0.41567,0.0517 -0.59915,0.15507 -0.18313,0.10379 -0.31265,0.19263 -0.38753,0.26752 v -1.82424 l -0.14097,-0.14133 h -1.40956 l -0.14098,0.14133 v 6.85185 l 0.14098,0.14097 h 0.28191 l 0.57788,-0.60602 c 0.22567,0.18807 0.47225,0.33589 0.74011,0.4438 0.26782,0.10822 0.58015,0.16231 0.93728,0.16231 h 0.70478 c 0.3192,0 0.61549,-0.0585 0.88792,-0.17622 0.27275,-0.11749 0.50985,-0.27699 0.71198,-0.47912 0.20177,-0.2021 0.3617,-0.43889 0.47911,-0.71196 0.11748,-0.27243 0.17622,-0.56841 0.17622,-0.88792 v -1.08055 c 0,-0.31918 -0.0589,-0.61548 -0.17622,-0.88824"
         style="fill:#59595c;fill-opacity:1;fill-rule:nonzero;stroke:none;stroke-width:0.3270413"
         id="path8519-9"
         inkscape:connector-curvature="0" />
      <path
         d="m 208.23923,175.24618 -2.88809,4.38202 1.44845,2.19771 h -3.98695 l 1.69668,2.51922 h -3.9585 l 1.69637,2.5192 h -4.03176 l 1.69636,-2.5192 h -3.95884 l 1.6967,-2.51922 H 193.663 l 1.44815,-2.19771 -1.44847,-2.19772 h 3.98697 l -1.6967,-2.51952 h 3.95884 l -1.69636,-2.51919 h 4.03176 l -1.69637,2.51919 h 2.63334 l 3.1674,-4.70317 h -12.24051 l 1.69637,2.51919 h -3.95884 l 1.69668,2.5192 h -3.93789 l 2.88811,4.38202 -2.88778,4.38203 h 3.93756 l -1.69668,2.5192 h 3.95884 l -1.69637,2.5192 h 12.24051 l -1.69671,-2.5192 h 3.95918 l -1.6967,-2.5192 h 3.9376 l -2.88778,-4.38203 2.8881,-4.38202 z"
         style="fill:#2bbbb1;fill-opacity:1;fill-rule:nonzero;stroke:none;stroke-width:0.3270413"
         id="path8523-2"
         inkscape:connector-curvature="0" />
    </g>
  </g>
</svg>
